<?xml version="1.0" encoding="utf-8"?>
<!-- Generator: Adobe Illustrator 27.0.0, SVG Export Plug-In . SVG Version: 6.00 Build 0)  -->
<svg version="1.1" xmlns="http://www.w3.org/2000/svg" xmlns:xlink="http://www.w3.org/1999/xlink" x="0px" y="0px"
	 viewBox="0 0 512 512" style="enable-background:new 0 0 512 512;" xml:space="preserve">
<style type="text/css">
	.st0{display:none;}
	.st1{fill:#5685A1;}
	.st2{fill:#E6D2AB;}
</style>
<g id="Layer_1" class="st0">
	
		<image style="display:inline;overflow:visible;" width="315" height="316" xlink:href="EC6E043D.jpg"  transform="matrix(1 0 0 1 98.0116 98.0581)">
	</image>
</g>
<g id="Layer_2">
</g>
<g id="Layer_3" class="st0">
</g>
<g id="Layer_4">
	<g>
		<path class="st1" d="M353.8,388l40.6-135.8c0,0,12.8-54.8,1.1-79.1c-11.8-24.3-30.2-36.1-30.2-36.1s-11.2-6.4-10.4-16
			s6.2-17.6,14.2-25.1c8-7.5,12.6-12.3,12.6-12.3s7.8-9.4,3.2-13.9S361.3,48.9,337.5,43s-57.2-6.7-57.2-6.7s-8.3-0.5-11,7
			s-0.5,16,1.9,25.7c2.4,9.6,5.6,23.8-1.1,29.7c-6.7,5.9-12.6,7.2-19.8,7.5s-22.2,0-48.9,15s-33.7,50.8-41.2,74.9
			c-7.5,24.1-42.8,141.2-42.8,141.2s-13.4,52.4,0,74.3c13.4,21.9,11.2,27.3,62.6,41.2s70.6,18.7,70.6,18.7s38.5,9.6,57.2,0
			s26.2-16.6,32.1-36.4C345.8,415.2,353.8,388,353.8,388z" onclick="alert('Clicked!')"/>
		<g>
			<path class="st2" d="M307.5,265.1c-41.4,5.7-62.7,0-81.3-14.3c-18.5-14.3-21.4-18.5-40.6-20.7c-5.3-0.6-13.3,1.3-22.2,4.4
				c-11.4,37.4-28.7,95-28.7,95s-11.6,45.5,0,64.6s9.8,23.7,54.3,35.8c44.6,12.1,61.3,16.3,61.3,16.3s33.4,8.4,49.7,0
				c16.3-8.4,22.8-14.4,27.9-31.6c5.1-17.2,12.1-40.9,12.1-40.9l26.7-89.2C355.3,268.6,347.1,259.7,307.5,265.1z"/>
		</g>
	</g>
</g>
</svg>
